<?xml version="1.0" encoding="UTF-8"?>
<!-- Uploaded to: SVG Repo, www.svgrepo.com, Generator: SVG Repo Mixer Tools -->
<svg viewBox="0 0 1200 1600" fill="none" version="1.1" xmlns="http://www.w3.org/2000/svg">
  <mask id="mask0" mask-type="alpha" maskUnits="userSpaceOnUse" x="200" y="0" width="1200" height="1600">
    <path d="m 1333.25,0 c 36.86,0 66.75,29.8849 66.75,66.75 v 1466.5 c 0,36.86 -29.89,66.75 -66.75,66.75 H 266.667 C 229.848,1600 200,1570.15 200,1533.33 V 866.667 C 200,829.848 229.848,800 266.667,800 H 525 V 466.667 C 525,429.848 554.848,400 591.667,400 H 850 V 66.75 C 850,29.885 879.885,0 916.75,0 Z" fill="currentColor"/>
  </mask>
  <g mask="url(#mask0)" transform="translate(-200)">
    <path d="m 1400,66.75 v 1466.5 c 0,36.86 -29.89,66.75 -66.75,66.75 H 916.75 C 879.885,1600 850,1570.11 850,1533.25 V 66.75 C 850,29.885 879.885,0 916.75,0 h 416.5 c 36.87,0 66.75,29.8849 66.75,66.75 z" fill="url(#paint0_linear)"/>
    <g filter="url(#filter0_dd)">
      <path d="M 1075,466.667 V 1600 H 525 V 466.667 C 525,429.848 554.848,400 591.667,400 h 416.663 c 36.82,0 66.67,29.848 66.67,66.667 z" fill="url(#paint1_linear)"/>
    </g>
    <path d="m 200,866.667 v 666.663 c 0,36.82 29.848,66.67 66.667,66.67 H 750 V 866.667 C 750,829.848 720.152,800 683.333,800 H 266.667 C 229.848,800 200,829.848 200,866.667 Z" fill="url(#paint2_linear)"/>
  </g>
  <defs>
    <linearGradient id="paint0_linear" x1="758.33301" y1="-1.49632e-05" x2="1447.8199" y2="1507.15" gradientUnits="userSpaceOnUse">
      <!-- 将背景颜色改为 currentColor -->
      <stop stop-color="currentColor"/>
      <stop offset="1" stop-color="currentColor"/>
    </linearGradient>
    <linearGradient id="paint1_linear" x1="524.95502" y1="400" x2="1105.79" y2="1561.67" gradientUnits="userSpaceOnUse">
      <stop stop-color="#F6D751"/>
      <stop offset="1" stop-color="#E6AD10"/>
    </linearGradient>
    <linearGradient id="paint2_linear" x1="199.955" y1="800" x2="519.784" y2="1581.6801" gradientUnits="userSpaceOnUse">
      <stop stop-color="#F9E589"/>
      <stop offset="1" stop-color="#F6D751"/>
    </linearGradient>
  </defs>
</svg>